#!OML:ASF F:\VICON\USERDATA\INSTALL\rory3\rory3.ASF
:FULLY-SPECIFIED
:DEGREES
965
root 4.33247 14.7045 -6.74655 14.6177 -22.2521 6.15843
lowerback -4.19007 -4.24329 -5.83991
upperback -5.58822 -5.63085 -0.636415
thorax -2.95983 -2.64988 2.48352
lowerneck -6.75601 -1.12462 -0.163806
upperneck 41.0539 -4.81717 5.36485
head 15.871 -1.67489 1.57004
rclavicle 1.67414e-014 2.27608e-014
rhumerus -15.0537 -41.4279 22.3907
rradius 40.4864
rwrist -33.0054
rhand -28.3406 32.3457
rfingers 7.12502
rthumb -1.71491 2.37284
lclavicle 1.67414e-014 2.27608e-014
lhumerus -62.6933 -47.1431 123.065
lradius 30.8142
lwrist -0.921479
lhand 15.9767 17.546
lfingers 7.12502
lthumb 40.7702 42.535
rfemur -78.3375 -9.41707 28.3227
rtibia 45.45
rfoot 1.10863 -40.3114
rtoes 41.2877
lfemur -18.8881 -6.4099 -32.7906
ltibia 53.4755
lfoot -35.7737 11.7161
ltoes -40.0171
966
root 4.2355 14.7819 -6.6014 14.9871 -21.7967 6.11163
lowerback -4.82621 -4.30246 -5.84168
upperback -6.15717 -5.69016 -0.474505
thorax -3.18214 -2.66368 2.62451
lowerneck -6.25326 -1.29969 -0.122101
upperneck 41.299 -5.04043 5.15205
head 15.8821 -1.79999 1.44599
rclavicle -3.7064e-014 1.76918e-014
rhumerus -16.4532 -41.4403 22.7415
rradius 39.5918
rwrist -32.4344
rhand -29.1103 32.3789
rfingers 7.12502
rthumb -2.45826 2.41329
lclavicle -3.7064e-014 1.76918e-014
lhumerus -66.1284 -48.4525 126.456
lradius 32.5741
lwrist 0.209966
lhand 17.1528 16.8475
lfingers 7.12502
lthumb 41.874 41.4796
rfemur -77.4263 -9.06772 27.5907
rtibia 45.714
rfoot -6.77074 -39.3325
rtoes 47.2491
lfemur -17.7164 -6.9252 -32.4255
ltibia 51.8395
lfoot -35.1804 11.053
ltoes -40.3576
967
root 4.13317 14.7999 -6.43902 15.3051 -21.642 5.90408
lowerback -5.82885 -4.31345 -5.65291
upperback -6.55037 -5.6532 -0.26358
thorax -3.03665 -2.64936 2.67725
lowerneck -5.69026 -1.35237 -0.446841
upperneck 41.5599 -5.06915 5.1226
head 15.8939 -1.87853 1.49871
rclavicle 6.30334e-014 -8.4732e-015
rhumerus -17.6919 -40.7513 22.8585
rradius 39.241
rwrist -32.197
rhand -30.98 31.077
rfingers 7.12502
rthumb -4.26382 1.13992
lclavicle 6.30334e-014 -8.4732e-015
lhumerus -68.7364 -49.2525 129.052
lradius 34.2299
lwrist 1.41133
lhand 17.9081 16.5665
lfingers 7.12502
lthumb 42.5816 40.9586
rfemur -76.8848 -8.98777 28.1976
rtibia 45.617
rfoot -2.78074 -38.5979
rtoes 42.2568
lfemur -16.4795 -6.71947 -31.962
ltibia 50.4145
lfoot -34.5915 10.7657
ltoes -41.2732
968
root 4.03439 14.8756 -6.26677 15.547 -21.7977 5.42505
lowerback -6.94335 -4.24566 -5.1758
upperback -6.61291 -5.50497 -0.100439
thorax -2.52087 -2.60513 2.50566
lowerneck -5.76913 -1.33051 -0.434254
upperneck 41.7288 -5.04314 5.076
head 16.0009 -1.86858 1.48244
rclavicle -1.39797e-013 -3.37064e-014
rhumerus -18.9557 -41.1343 22.8127
rradius 38.5951
rwrist -31.5499
rhand -31.7809 30.3353
rfingers 7.12502
rthumb -5.0372 0.415176
lclavicle -1.39797e-013 -3.37064e-014
lhumerus -70.1575 -49.8381 130.18
lradius 35.8955
lwrist 2.40397
lhand 18.1508 17.0305
lfingers 7.12502
lthumb 42.8087 41.3437
rfemur -75.7467 -8.0688 27.7775
rtibia 45.7124
rfoot -6.25912 -38.2594
rtoes 42.8843
lfemur -14.9273 -6.72352 -31.4135
ltibia 48.6704
lfoot -33.7633 10.5894
ltoes -41.7974
969
root 3.9264 14.9187 -6.12165 15.9695 -21.7325 5.30342
lowerback -7.99583 -4.37877 -5.26325
upperback -6.64835 -5.60963 0.031657
thorax -1.95107 -2.66808 2.60015
lowerneck -6.60557 -1.32457 -0.0391884
upperneck 42.0138 -5.04125 4.76435
head 16.3388 -1.82337 1.27
rclavicle -8.90881e-015 -2.68608e-014
rhumerus -20.352 -42.2162 22.7576
rradius 37.8551
rwrist -31.2191
rhand -31.0435 31.2623
rfingers 7.12502
rthumb -4.32512 1.32649
lclavicle -8.90881e-015 -2.68608e-014
lhumerus -71.3854 -50.813 131.015
lradius 37.7452
lwrist 3.91968
lhand 18.4962 17.6833
lfingers 7.12502
lthumb 43.1317 41.8825
rfemur -75.2663 -7.79826 28.2283
rtibia 45.62
rfoot -5.84742 -38.0154
rtoes 39.9924
lfemur -13.9307 -6.6999 -30.946
ltibia 47.1086
lfoot -32.7336 9.78834
ltoes -41.6296
970
root 3.81885 14.9836 -5.98246 16.2771 -21.6796 5.15843
lowerback -8.45972 -4.20454 -5.30445
upperback -7.44395 -5.37966 0.31795
thorax -2.5251 -2.52175 2.93934
lowerneck -5.5847 -1.52541 -0.75871
upperneck 42.4204 -5.23666 4.77467
head 16.3413 -2.03858 1.3955
rclavicle -4.96232e-014 2.88238e-015
rhumerus -21.6061 -40.0189 23.1218
rradius 37.7265
rwrist -31.0142
rhand -33.6316 30.1745
rfingers 7.12502
rthumb -6.82396 0.304437
lclavicle -4.96232e-014 2.88238e-015
lhumerus -74.2508 -50.8948 133.773
lradius 39.502
lwrist 4.94788
lhand 19.3753 17.8412
lfingers 7.12502
lthumb 43.9527 41.7417
rfemur -74.4527 -6.66511 27.2341
rtibia 45.7763
rfoot -12.4677 -38.0992
rtoes 43.6745
lfemur -12.6945 -6.53819 -30.4714
ltibia 45.3608
lfoot -31.182 9.99655
ltoes -43.6522
